/* XPM */
static char *_b93e54f08f64ea3bfef4d3a2fed0a31V9dwJpKdRBWnrZaN[] = {
/* columns rows colors chars-per-pixel */
"32 32 7 1 ",
"  c #664D28",
". c #6B5332",
"X c #5B5B5B",
"o c gray48",
"O c #805E36",
"+ c #8B673C",
"@ c #997140",
/* pixels */
"O@+@@@@@@@+@@@@@@@+@@@@@@@+@@@@O",
"@ ..    . .. O  . .... O . .   @",
"@........... O........ O.......@",
"@...........O++++++O.. O ......@",
"@.........OO++++++++OO O ..... @",
"@ ......O++O++++++++O@+O ..... +",
"@ .....O+++O+O++@++@O@@+O..... @",
"+ ....O@+++O+O@+@++@+@@++O.... @",
"@ ...O+@@O++++@+@@+@O@@@+@O....@",
"@....++@@O@O+++@@@+@O@@@+@+... @",
"@ ..O@+@@+@+@++@@@@@O@@+@+@O.. @",
"@ ..+@+@@@@O@@+@@@+@+@@+@+@+.. @",
"@..O@+@@@+@O@@+@@@@@O@@@@+@@O  @",
"@..+@+@@@@@+@@+@@@+@+@@+@@@@+OO+",
"@  +@@@@@@@O@@@@@@+@+@@+@@@@+. @",
"+OO+@@++++@O@@+@@+@@O@@@@+@@+..@",
"@ .+@+OXXO+O@@@@@@@@O@@@+@@@+..@",
"@..+@+ooXXO+@@@@@@@@+@@@+@@@+..@",
"@ .+@+oooXO+@@@@@+@@O@+@@@@@+. @",
"@..O@+OooO+O@+@@@@@@O@@@@+@@O..@",
"@...+@OOO+@O@+@@@+@@O@@+@O@+.. @",
"@...O@@@@@@O+@@@@+@@+@@+@+@+OOO+",
"@    +@@+@@O+@@@@@+@+@@@@++    @",
"+OOOOO@@+@@+@@+@@@+@O@@+@+O....@",
"@ .   O++@@+@@@@@+++O@@++O.....@",
"@......O+@@O@@+@@+O+O@@+O..... @",
"@.......O+@+@@+@+@O+O@+O...... @",
"@.........OO@@++++O+OO........ @",
"@...........O++++++O.......... @",
"@............O....O ...........@",
"+ . .... .   O .. O    . ..... +",
"O+@@@@@@@@+@@@@@@@+@@@@@@@+@@@@O"
};
