/* XPM */
static char *beb42f8841594496d293bc7124abe5b96hL4H453ug827obG[] = {
/* columns rows colors chars-per-pixel */
"92 90 143 2 ",
"   c #010001",
".  c #080007",
"X  c #0B000A",
"o  c #10000E",
"O  c #140012",
"+  c #180015",
"@  c #454545",
"#  c #484747",
"$  c #474847",
"%  c #484947",
"&  c #474748",
"*  c #474848",
"=  c #4C4C4C",
"-  c #504F4F",
";  c #4F504F",
":  c #50504F",
">  c #4F4F50",
",  c #504F50",
"<  c #4F5050",
"1  c #545454",
"2  c #585757",
"3  c #575857",
"4  c #585857",
"5  c #575758",
"6  c #585758",
"7  c #575858",
"8  c #5C5C5C",
"9  c #605F5F",
"0  c #5F605F",
"q  c #60605F",
"w  c #5F5F60",
"e  c #605F60",
"r  c #5F6060",
"t  c #646464",
"y  c #686767",
"u  c #676867",
"i  c #686867",
"p  c #676768",
"a  c #686768",
"s  c #676868",
"d  c #6C6C6C",
"f  c #706F6F",
"g  c #6F706F",
"h  c #70706F",
"j  c #6F6F70",
"k  c #706F70",
"l  c #6F7070",
"z  c #707070",
"x  c #727071",
"c  c #727171",
"v  c #717270",
"b  c #717271",
"n  c #727271",
"m  c #717172",
"M  c #727072",
"N  c #727172",
"B  c #737172",
"V  c #717272",
"C  c #727272",
"Z  c #727372",
"A  c #737372",
"S  c #727273",
"D  c #737273",
"F  c gray45",
"G  c #747373",
"H  c #727473",
"J  c #737473",
"K  c #737374",
"L  c #747374",
"P  c #737474",
"I  c #747474",
"U  c #757474",
"Y  c #747574",
"T  c #747475",
"R  c #757475",
"E  c #747575",
"W  c gray46",
"Q  c #767475",
"!  c #767575",
"~  c #757675",
"^  c #767675",
"/  c #757576",
"(  c #767576",
")  c #757676",
"_  c #767676",
"`  c #777676",
"'  c #767776",
"]  c #777776",
"[  c #777677",
"{  c #767777",
"}  c #777777",
"|  c #717171",
" . c #787776",
".. c #777877",
"X. c #777778",
"o. c #787778",
"O. c #797778",
"+. c #797779",
"@. c #777878",
"#. c gray47",
"$. c #787978",
"%. c #797879",
"&. c #787979",
"*. c #797979",
"=. c #787A78",
"-. c #787A79",
";. c #797A79",
":. c #7A7A79",
">. c #79797A",
",. c gray48",
"<. c #7B7A7A",
"1. c #7A7B7A",
"2. c #7B7B7A",
"3. c #7A7A7B",
"4. c #7B7B7B",
"5. c #7C7B7B",
"6. c #7B7C7B",
"7. c #7B7B7C",
"8. c #7C7B7C",
"9. c #7B7D7C",
"0. c #7C7C7C",
"q. c #7D7C7C",
"w. c #7C7D7C",
"e. c #7D7D7C",
"r. c #7C7C7D",
"t. c #7D7C7D",
"y. c gray49",
"u. c #7E7D7D",
"i. c #7D7E7D",
"p. c #7E7E7D",
"a. c #7D7D7E",
"s. c #7D7E7E",
"d. c #7F7E7F",
"f. c #7F7F7E",
"g. c #7F807F",
"h. c #80807F",
"j. c #930083",
"k. c #950085",
"l. c #950085",
"z. c #980088",
"x. c #980088",
"c. c #7F8080",
"v. c #808080",
/* pixels */
"z.z.z.z.z.z.z.z.z.z.z.z.z.z.z.z.z.z.z.z.z.z.z.z.z.z.z.z.z.z.z.z.z.z.z.z.z.z.z.z.z.z.z.z.z.z.z.z.z.z.z.z.z.z.z.z.z.z.z.z.z.z.z.z.z.z.z.z.z.z.z.z.z.z.z.z.z.z.z.z.z.z.z.z.z.z.z.z.z.z.z.z.",
"z.z.z.z.z.z.z.z.z.z.z.z.z.z.z.z.z.z.z.z.z.z.z.z.z.z.z.z.z.z.z.z.z.z.z.z.z.z.z.z.z.z.z.z.z.z.z.z.z.z.z.z.z.z.z.z.z.z.z.z.z.z.z.z.z.z.z.z.z.z.z.z.z.z.z.z.z.z.z.z.z.z.z.z.z.z.z.z.z.z.z.z.",
"z.z.z.z.z.z.z.z.z.z.z.z.z.z.z.z.z.z.z.z.z.z.z.z.z.z.z.z.z.z.z.z.z.z.z.z.z.z.z.z.z.z.z.z.z.z.z.z.z.z.z.z.z.z.z.z.z.z.z.z.z.z.z.z.z.z.z.z.z.z.z.z.z.z.z.z.z.z.z.z.z.z.z.z.z.z.z.z.z.z.z.z.",
"z.z.z.z.z.z.z.z.z.z.z.z.z.z.z.z.z.z.z.z.z.z.z.z.z.z.z.z.z.z.z.z.z.z.z.z.z.z.z.z.z.z.z.z.z.z.z.z.z.z.z.z.z.z.z.z.z.z.z.z.z.z.z.z.z.z.z.z.z.z.z.z.z.z.z.z.z.z.z.z.z.z.z.z.z.z.z.z.z.z.z.z.",
"z.z.z.z.z.z.z.z.z.z.z.z.z.z.z.z.z.z.z.z.z.z.z.z.z.z.z.z.z.z.z.z.z.z.z.z.z.z.z.z.z.z.z.z.z.z.z.z.z.z.z.z.z.z.z.z.z.z.z.z.z.z.z.z.z.z.z.z.z.z.z.z.z.z.z.z.z.z.z.z.z.z.z.z.z.z.z.z.z.z.z.z.",
"z.z.z.z.z.z.z.z.z.z.z.z.z.z.z.z.z.z.z.z.z.z.z.z.z.z.z.z.z.z.z.z.z.z.z.z.z.z.z.z.z.z.z.z.z.z.z.z.z.z.z.z.z.z.z.z.z.z.z.z.z.z.z.z.z.z.z.z.z.z.z.z.z.z.z.z.z.z.z.z.z.z.z.z.z.z.z.z.z.z.z.z.",
"z.z.z.z.z.z.z.z.z.z.z.z.z.z.z.z.z.z.z.z.z.z.z.z.z.z.z.z.z.z.z.z.z.z.z.z.z.z.z.z.z.z.z.z.z.z.z.z.z.z.z.z.z.z.z.z.z.z.z.z.z.z.z.z.z.z.z.z.z.z.z.z.z.z.z.z.z.z.z.z.z.z.z.z.z.z.z.z.z.z.z.z.",
"z.z.z.z.z.z.z.z.z.z.z.z.z.z.z.z.z.z.z.z.z.z.z.z.z.z.z.z.z.z.z.z.z.z.z.z.z.z.z.z.z.z.z.z.z.z.z.z.z.z.z.z.z.z.z.z.z.z.z.z.z.z.z.z.z.z.z.z.z.z.z.z.z.z.z.z.z.z.z.z.z.z.z.z.z.z.z.z.z.z.z.z.",
"z.z.z.z.z.z.z.z.z.z.z.z.z.z.z.z.z.z.z.z.z.z.z.z.z.z.z.z.z.z.z.z.z.z.z.z.z.z.z.z.z.z.z.z.z.z.z.z.z.z.z.z.z.z.z.z.z.z.z.z.z.z.z.z.z.z.z.z.z.z.z.z.z.z.z.z.z.z.z.z.z.z.z.z.z.z.z.z.z.z.z.z.",
"z.z.z.z.z.z.z.z.z.z.z.z.z.z.z.z.z.z.z.z.z.z.z.z.z.z.z.z.z.z.z.z.z.z.z.z.z.z.z.z.z.z.z.z.z.z.z.z.z.z.z.z.z.z.z.z.z.z.z.z.z.z.z.z.z.z.z.z.z.z.z.z.z.z.z.z.z.z.z.z.z.z.z.z.z.z.z.z.z.z.z.z.",
"z.z.z.z.z.z.z.z.z.z.z.z.z.z.z.z.z.z.z.z.z.z.z.z.z.z.z.z.z.z.z.z.z.z.z.z.z.z.z.z.z.z.z.z.z.z.z.z.z.z.z.z.z.z.z.z.z.z.z.z.z.z.z.z.z.z.z.z.z.z.z.z.z.z.z.z.z.z.z.z.z.z.z.z.z.z.z.z.z.z.z.z.",
"z.z.z.z.z.z.z.z.z.z.z.z.z.z.z.z.z.z.z.z.z.z.z.z.z.z.z.z.z.z.z.z.z.z.z.z.z.z.z.z.z.z.z.z.z.z.z.z.z.z.z.z.z.z.z.z.z.z.z.z.z.z.z.z.z.z.z.z.z.z.z.z.z.z.z.z.z.z.z.z.z.z.z.z.z.z.z.z.z.z.z.z.",
"z.z.z.z.z.z.z.z.z.z.z.z.z.z.z.z.z.z.z.z.z.z.z.z.z.z.z.z.z.z.z.z.z.z.z.z.z.z.z.z.z.z.z.z.z.z.z.z.z.z.z.z.z.z.z.z.z.z.z.z.z.z.z.z.z.z.z.z.z.z.z.z.z.z.z.z.z.z.z.z.z.z.z.z.z.z.z.z.z.z.z.z.",
"z.z.z.z.z.z.z.z.z.z.z.z.z.z.z.z.z.z.z.z.z.z.z.z.z.z.z.z.z.z.z.z.z.z.z.z.z.z.z.z.z.z.z.z.z.z.z.z.z.z.z.z.z.z.z.z.z.z.z.z.z.z.z.z.z.z.z.z.z.z.z.z.z.z.z.z.z.z.z.z.z.z.z.z.z.z.z.z.z.z.z.z.",
"z.z.z.z.z.z.z.z.z.z.z.z.z.z.z.z.z.z.z.z.z.z.z.z.z.z.z.z.z.z.z.z.z.z.z.z.z.z.z.z.z.z.z.z.z.z.z.z.z.z.z.z.z.z.z.z.z.z.z.z.z.z.z.z.z.z.z.z.z.z.z.z.z.z.z.z.z.z.z.z.z.z.z.z.z.z.z.z.z.z.z.z.",
"z.z.z.z.z.z.z.z.z.z.z.z.z.z.z.z.z.z.z.z.z.z.z.z.z.z.z.z.z.z.z.z.z.z.z.z.z.z.z.z.z.z.z.z.z.z.z.z.z.z.z.z.z.z.z.z.z.z.z.z.z.z.z.z.z.z.z.z.z.z.z.z.z.z.z.z.z.z.z.z.z.z.z.z.z.z.z.z.z.z.z.z.",
"z.z.z.z.z.z.z.z.z.z.z.z.z.z.z.z.z.z.z.z.z.z.z.z.z.z.z.z.z.z.z.z.z.z.z.z.z.z.z.z.z.z.z.z.z.  . z.z.z.z.z.z.z.z.z.z.z.z.z.z.z.z.z.z.z.z.z.z.z.z.z.z.z.z.z.z.z.z.z.z.z.z.z.z.z.z.z.z.z.z.z.",
"z.z.z.z.z.z.z.z.z.z.z.z.z.z.z.z.z.z.z.z.z.z.z.z.z.z.z.z.z.z.z.z.z.z.z.z.z.z.z.z.z.z.z.z.      X z.z.z.z.z.z.z.z.z.z.z.z.z.z.z.z.z.z.z.z.z.z.z.z.z.z.z.z.z.z.z.z.z.z.z.z.z.z.z.z.z.z.z.z.",
"z.z.z.z.z.z.z.z.z.z.z.z.z.z.z.z.z.z.z.z.z.z.z.z.z.z.z.z.z.z.z.z.z.z.z.z.z.z.z.z.z.z.z.z.        z.z.z.z.z.z.z.z.z.z.z.z.z.z.z.z.z.z.z.z.z.z.z.z.z.z.z.z.z.z.z.z.z.z.z.z.z.z.z.z.z.z.z.z.",
"z.z.z.z.z.z.z.z.z.z.z.z.z.z.z.z.z.z.z.z.z.z.z.z.z.z.z.z.z.z.z.z.z.z.z.z.z.z.z.z.z.z.z.z.        z.z.z.z.z.z.z.z.z.z.z.z.z.z.z.z.z.z.z.z.z.z.z.z.z.z.z.z.z.z.z.z.z.z.z.z.z.z.z.z.z.z.z.z.",
"z.z.z.z.z.z.z.z.z.z.z.z.z.z.z.z.z.z.z.z.z.z.z.z.z.z.z.z.z.z.z.z.z.z.z.z.z.z.z.z.z.z.z..   v.v.  O z.z.z.z.z.z.z.z.z.z.z.z.z.z.z.z.z.z.z.z.z.z.z.z.z.z.z.z.z.z.z.z.z.z.z.z.z.z.z.z.z.z.z.",
"z.z.z.z.z.z.z.z.z.z.z.z.z.z.z.z.z.z.z.z.z.z.z.z.z.z.z.z.z.z.z.z.z.z.z.z.z.z.z.z.z.z.k.    v.v.o   z.z.z.z.z.z.z.z.z.z.z.z.z.z.z.z.z.z.z.z.z.z.z.z.z.z.z.z.z.z.z.z.z.z.z.z.z.z.z.z.z.z.z.",
"z.z.z.z.z.z.z.z.z.z.z.z.z.z.z.z.z.z.z.z.z.z.z.z.z.z.z.z.z.z.z.z.z.z.z.z.z.z.z.z.z.z.z.  o v.v.    z.z.z.z.z.z.z.z.z.z.z.z.z.z.z.z.z.z.z.z.z.z.z.z.z.z.z.z.z.z.z.z.z.z.z.z.z.z.z.z.z.z.z.",
"z.z.z.z.z.z.z.z.z.z.z.z.z.z.z.z.z.z.z.z.z.z.z.z.z.z.z.z.z.z.z.z.z.z.z.z.z.z.z.z.z.z..     v.v.v.  O z.z.z.z.z.z.z.z.z.z.z.z.z.z.z.z.z.z.z.z.z.z.z.z.z.z.z.z.z.z.z.z.z.z.z.z.z.z.z.z.z.z.",
"z.z.z.z.z.z.z.z.z.z.z.z.z.z.z.z.z.z.z.z.z.z.z.z.z.z.z.z.z.z.z.z.z.z.z.z.z.z.z.z.z.z.    v.v.v.v.o   z.z.z.z.z.z.z.z.z.z.z.z.z.z.z.z.z.z.z.z.z.z.z.z.z.z.z.z.z.z.z.z.z.z.z.z.z.z.z.z.z.z.",
"z.z.z.z.z.z.z.z.z.z.z.z.z.z.z.z.z.z.z.z.z.z.z.z.z.z.z.z.z.z.z.z.z.z.z.z.z.z.z.z.z.z.  X v.v.v.v.    z.z.z.z.z.z.z.z.z.z.z.z.z.z.z.z.z.z.z.z.z.z.z.z.z.z.z.z.z.z.z.z.z.z.z.z.z.z.z.z.z.z.",
"z.z.z.z.z.z.z.z.z.z.z.z.z.z.z.z.z.z.z.z.z.z.z.z.z.z.z.z.z.z.z.z.z.z.z.z.z.z.z.z.z.X     v.v.v.v.v.    z.z.z.z.z.z.z.z.z.z.z.z.z.z.z.z.z.z.z.z.z.z.z.z.z.z.z.z.z.z.z.z.z.z.z.z.z.z.z.z.z.",
"z.z.z.z.z.z.z.z.z.z.z.z.z.z.z.z.z.z.z.z.z.z.z.z.z.z.z.z.z.z.z.z.z.z.z.z.z.z.z.z.z.    v.v.v.v.v.v.    z.z.z.z.z.z.z.z.z.z.z.z.z.z.z.z.z.z.z.z.z.z.z.z.z.z.z.z.z.z.z.z.z.z.z.z.z.z.z.z.z.",
"z.z.z.z.z.z.z.z.z.z.z.z.z.z.z.z.z.z.z.z.z.z.z.z.z.z.z.z.z.z.z.z.z.z.z.z.z.z.z.z.k.  . v.v.v.v.v.v.    z.z.z.z.z.z.z.z.z.z.z.z.z.z.z.z.z.z.z.z.z.z.z.z.z.z.z.z.z.z.z.z.z.z.z.z.z.z.z.z.z.",
"z.z.z.z.z.z.z.z.z.z.z.z.z.z.z.z.z.z.z.z.z.z.z.z.z.z.z.z.z.z.z.z.z.z.z.z.z.z.z.z.O     v.v.v.v.v.v.    . z.z.z.z.z.z.z.z.z.z.z.z.z.z.z.z.z.z.z.z.z.z.z.z.z.z.z.z.z.z.z.z.z.z.z.z.z.z.z.z.",
"z.z.z.z.z.z.z.z.z.z.z.z.z.z.z.z.z.z.z.z.z.z.z.z.z.z.z.z.z.z.z.z.z.z.z.z.z.z.z.z.    v.v.v.v.v.v.v.v.    z.z.z.z.z.z.z.z.z.z.z.z.z.z.z.z.z.z.z.z.z.z.z.z.z.z.z.z.z.z.z.z.z.z.z.z.z.z.z.z.",
"z.z.z.z.z.z.z.z.z.z.z.z.z.z.z.z.z.z.z.z.z.z.z.z.z.z.z.z.z.z.z.z.z.z.z.z.z.z.z.z.  . v.v.v.v.v.v.v.v.X   z.z.z.z.z.z.z.z.z.z.z.z.z.z.z.z.z.z.z.z.z.z.z.z.z.z.z.z.z.z.z.z.z.z.z.z.z.z.z.z.",
"z.z.z.z.z.z.z.z.z.z.z.z.z.z.z.z.z.z.z.z.z.z.z.z.z.z.z.z.z.z.z.z.z.z.z.z.z.z.z.+     v.v.v.v.v.v.v.v.    . z.z.z.z.z.z.z.z.z.z.z.z.z.z.z.z.z.z.z.z.z.z.z.z.z.z.z.z.z.z.z.z.z.z.z.z.z.z.z.",
"z.z.z.z.z.z.z.z.z.z.z.z.z.z.z.z.z.z.z.z.z.z.z.z.z.z.z.z.z.z.z.z.z.z.z.z.z.z.k.    v.v.v.v.v.v.v.v.v.v.    z.z.z.z.z.z.z.z.z.z.z.z.z.z.z.z.z.z.z.z.z.z.z.z.z.z.z.z.z.z.z.z.z.z.z.z.z.z.z.",
"z.z.z.z.z.z.z.z.z.z.z.z.z.z.z.z.z.z.z.z.z.z.z.z.z.z.z.z.z.z.z.z.z.z.z.z.z.z.z.    v.c.c.c.v.v.v.v.v.v.X   z.z.z.z.z.z.z.z.z.z.z.z.z.z.z.z.z.z.z.z.z.z.z.z.z.z.z.z.z.z.z.z.z.z.z.z.z.z.z.",
"z.z.z.z.z.z.z.z.z.z.z.z.z.z.z.z.z.z.z.z.z.z.z.z.z.z.z.z.z.z.z.z.z.z.z.z.z.z.z.    c.p.p.p.d.p.p.p.p.c.    . z.z.z.z.z.z.z.z.z.z.z.z.z.z.z.z.z.z.z.z.z.z.z.z.z.z.z.z.z.z.z.z.z.z.z.z.z.z.",
"z.z.z.z.z.z.z.z.z.z.z.z.z.z.z.z.z.z.z.z.z.z.z.z.z.z.z.z.z.z.z.z.z.z.z.z.z.z.    p.p.p.p.p.p.p.p.p.p.p.p.    z.z.z.z.z.z.z.z.z.z.z.z.z.z.z.z.z.z.z.z.z.z.z.z.z.z.z.z.z.z.z.z.z.z.z.z.z.z.",
"z.z.z.z.z.z.z.z.z.z.z.z.z.z.z.z.z.z.z.z.z.z.z.z.z.z.z.z.z.z.z.z.z.z.z.z.z.z.    p.p.8.p.7.9.p.e.9.p.5.p..   z.z.z.z.z.z.z.z.z.z.z.z.z.z.z.z.z.z.z.z.z.z.z.z.z.z.z.z.z.z.z.z.z.z.z.z.z.z.",
"z.z.z.z.z.z.z.z.z.z.z.z.z.z.z.z.z.z.z.z.z.z.z.z.z.z.z.z.z.z.z.z.z.z.z.z.z.z.    5.:.3.e.7.:.:.:.9.7.7.3.    o z.z.z.z.z.z.z.z.z.z.z.z.z.z.z.z.z.z.z.z.z.z.z.z.z.z.z.z.z.z.z.z.z.z.z.z.z.",
"z.z.z.z.z.z.z.z.z.z.z.z.z.z.z.z.z.z.z.z.z.z.z.z.z.z.z.z.z.z.z.z.z.z.z.z.z.    3.3.3.3.3.3.3.3.3.3.3.3.3.3.    z.z.z.z.z.z.z.z.z.z.z.z.z.z.z.z.z.z.z.z.z.z.z.z.z.z.z.z.z.z.z.z.z.z.z.z.z.",
"z.z.z.z.z.z.z.z.z.z.z.z.z.z.z.z.z.z.z.z.z.z.z.z.z.z.z.z.z.z.z.z.z.z.z.z.z.    3.3.3.3...3.#.3.#.3.3.#.3.3.    x.z.z.z.z.z.z.z.z.z.z.z.z.z.z.z.z.z.z.z.z.z.z.z.z.z.z.z.z.z.z.z.z.z.z.z.z.",
"z.z.z.z.z.z.z.z.z.z.z.z.z.z.z.z.z.z.z.z.z.z.z.z.z.z.z.z.z.z.z.z.z.z.z.z.z.    o. .o.3.Y o.3.....Y .. .3.3.    O z.z.z.z.z.z.z.z.z.z.z.z.z.z.z.z.z.z.z.z.z.z.z.z.z.z.z.z.z.z.z.z.z.z.z.z.",
"z.z.z.z.z.z.z.z.z.z.z.z.z.z.z.z.z.z.z.z.z.z.z.z.z.z.z.z.z.z.z.z.z.z.z.z..   X.o. .3...Y o. .Y #.Y o.o. .Y 3.    z.z.z.z.z.z.z.z.z.z.z.z.z.z.z.z.z.z.z.z.z.z.z.z.z.z.z.z.z.z.z.z.z.z.z.z.",
"z.z.z.z.z.z.z.z.z.z.z.z.z.z.z.z.z.z.z.z.z.z.z.z.z.z.z.z.z.z.z.z.z.z.z.z.    Y  .Y Y  .Y Y Y  .Y Y Y Y  .Y Y     z.z.z.z.z.z.z.z.z.z.z.z.z.z.z.z.z.z.z.z.z.z.z.z.z.z.z.z.z.z.z.z.z.z.z.z.",
"z.z.z.z.z.z.z.z.z.z.z.z.z.z.z.z.z.z.z.z.z.z.z.z.z.z.z.z.z.z.z.z.z.z.z.z.  O Y Y Y Q Y Y Y Y Y Y Y Q Q Y Y Y     + z.z.z.z.z.z.z.z.z.z.z.z.z.z.z.z.z.z.z.z.z.z.z.z.z.z.z.z.z.z.z.z.z.z.z.",
"z.z.z.z.z.z.z.z.z.z.z.z.z.z.z.z.z.z.z.z.z.z.z.z.z.z.z.z.z.z.z.z.z.z.z..     Y H K K H P H Q H H Y Q K K P P Y     z.z.z.z.z.z.z.z.z.z.z.z.z.z.z.z.z.z.z.z.z.z.z.z.z.z.z.z.z.z.z.z.z.z.z.",
"z.z.z.z.z.z.z.z.z.z.z.z.z.z.z.z.z.z.z.z.z.z.z.z.z.z.z.z.z.z.z.z.z.z.z.    B P H B B l H B B l l K B K B H B B     x.z.z.z.z.z.z.z.z.z.z.z.z.z.z.z.z.z.z.z.z.z.z.z.z.z.z.z.z.z.z.z.z.z.z.",
"z.z.z.z.z.z.z.z.z.z.z.z.z.z.z.z.z.z.z.z.z.z.z.z.z.z.z.z.z.z.z.z.z.z.z.  X B B B B B B l B B B B B l B B l B B     x.z.z.z.z.z.z.z.z.z.z.z.z.z.z.z.z.z.z.z.z.z.z.z.z.z.z.z.z.z.z.z.z.z.z.",
"z.z.z.z.z.z.z.z.z.z.z.z.z.z.z.z.z.z.z.z.z.z.z.z.z.z.z.z.z.z.z.z.z.z.X     l B l B B l B B B l l l l B g B g B B     z.z.z.z.z.z.x.x.x.x.x.x.x.x.x.x.x.x.z.z.z.z.z.z.z.z.z.z.z.z.z.z.z.z.",
"z.z.z.z.z.z.z.z.z.z.z.z.z.z.z.z.z.z.z.z.z.z.z.z.z.z.z.z.z.z.z.z.z.z.    l j l l d d j k g d j j d l B d k f j g     z.z.z.z.z.z.x.x.x.x.x.x.x.x.x.x.x.x.z.z.z.z.z.z.z.z.z.z.z.z.z.z.z.z.",
"z.z.z.z.z.z.z.z.z.z.z.z.z.z.z.z.z.z.z.z.z.z.z.z.z.z.z.z.z.z.z.z.z.z.  . g j d g l d d l d d j d d g d g k f d d o   z.z.z.z.z.z.x.x.x.x.x.x.x.x.x.x.x.x.z.z.z.z.z.z.z.z.z.z.z.z.z.z.z.z.",
"z.z.z.z.z.z.z.z.z.z.z.z.z.z.z.z.z.z.z.z.z.z.z.z.z.z.z.z.z.z.z.z.z.+     d d d d d d l d d d d d g d d d d f d d       z.z.z.z.z.x.x.x.x.x.x.x.x.x.x.x.x.z.z.z.z.z.z.z.z.z.z.z.z.z.z.z.z.",
"z.z.z.z.z.z.z.z.z.z.z.z.z.z.z.z.z.z.z.z.z.z.z.z.z.z.z.z.z.z.z.z.z.    g d d d d d d d d d d u d d d d d d d d d d     z.z.z.z.z.x.x.x.x.x.x.x.x.x.x.x.x.x.x.j.z.z.z.z.z.z.z.z.z.z.z.z.z.",
"z.z.z.z.z.z.z.z.z.z.z.z.z.. z.z.z.z.z.z.z.z.z.z.z.z.z.z.z.z.z.z.z.    d d d d d d d d d d d s d d d u d d d d d d .   z.z.z.z.z.x.x.x.x.x.x.x.x.x.x.x.x.x.x.. z.z.z.z.z.z.z.z.z.z.z.z.z.",
"z.z.z.z.z.z.z.z.z.z.z.z.X   z.z.z.z.z.z.z.z.z.z.z.z.z.z.z.z.z.z.+     d d d d u p d u d d p d u d u d d a d p d d       z.z.z.z.x.x.x.x.x.x.x.x.x.x.x.x.x.x.  X z.z.z.z.z.z.z.z.z.z.z.z.",
"z.z.z.z.z.z.z.z.z.z.z.z.    + z.z.z.z.z.z.z.z.z.z.z.z.z.z.z.z.z.    d d u d p d u u u u u p p u y y y u a d u d d d     z.z.z.z.x.x.x.x.x.x.x.x.x.x.x.x.x.x.    z.z.z.z.z.z.z.z.z.z.z.z.",
"z.z.z.z.z.z.z.z.z.z.z.z.  .   x.z.z.z.z.z.z.z.z.z.z.z.z.z.z.z.z.    u u d y y p y u y u y t y y y u p u y p u a p u .   x.x.x.x.x.x.x.x.x.x.x.x.z.z.z.z.k.  .   z.z.x.x.x.x.x.x.z.z.z.z.",
"z.z.z.z.z.z.z.z.z.z.k.O       x.z.z.z.z.z.z.z.z.z.z.z.z.z.z.z.z.    u y y y y y y y t y y u t y t u t p y p p p y p       x.x.x.x.x.x.x.x.x.x.x.z.z.z.z.z.      O z.x.x.x.x.x.x.z.z.z.z.",
"z.z.z.z.z.z.z.z.z.z.z.    Y   k.z.z.z.z.z.z.z.z.z.z.z.z.z.z.z.    y y y u u t t t t t t t t t t t t t t t t y t y y y     x.x.x.x.x.x.x.x.x.x.x.z.z.z.z.O   H     x.x.x.x.x.x.x.z.z.z.z.",
"z.z.z.z.z.z.z.z.z.z.z.    G     z.z.z.z.z.z.z.z.z.z.z.z.z.z.k.    y y t t t t t t t t t t t t t t t y t t t y t y t t     x.x.x.x.x.x.x.x.x.x.x.z.z.z.z.    H     x.x.x.x.x.x.x.z.z.z.z.",
"z.z.z.z.z.z.z.z.z.z.X   H H     z.z.z.z.z.z.z.z.z.z.z.z.z.z.z.    t y t t t t t t q t t q t 9 t t t t t t t t t t t t       z.z.x.x.x.x.x.x.x.x.z.z.z.z.    B B   o z.z.x.x.x.x.z.z.z.z.",
"z.z.z.z.z.z.z.z.z.z.    B B l   o z.z.z.z.z.z.z.z.z.z.z.z.z..   t t t t t t t r t 0 q t t 9 t t r t t r t t 8 t t t t t     z.z.x.x.x.x.x.x.x.x.z.z.z.o   B B B     z.z.x.x.x.x.z.z.z.z.",
"z.z.z.z.z.z.z.z.z.z.    H B B     z.z.z.z.z.z.z.z.z.z.z.z.z.    t t t w t t r t q t 0 t 8 q r q 8 t 8 t t e 8 t t t t t     z.z.x.x.x.x.x.x.x.x.x.x.z.    j l B     z.z.x.x.x.x.z.z.z.z.",
"z.z.z.z.z.z.z.z.z.X   B B B d     z.z.z.z.z.z.z.z.z.z.z.z.k.    t t t t 8 r w w 0 t 8 8 t 8 t 8 w w e 8 q 8 t t r 0 t t     . z.x.x.x.x.x.x.x.x.x.x.x.    g l l B   . k.x.x.x.x.z.z.z.z.",
"z.z.z.z.z.z.z.z.z.    B l l g d   . k.z.z.z.z.z.z.z.z.z.z..     t 8 t t 8 t q 9 8 q 9 8 9 8 8 t 8 8 9 8 t w e e t t 8 t t     x.x.x.x.x.x.x.x.x.z.z.X   d d B g B     x.z.z.z.z.z.z.z.z.",
"z.z.z.z.z.z.z.z.z.  B g l g B d     z.z.z.z.z.z.z.z.z.z.z.    t r t 0 8 8 8 8 0 w 8 9 8 9 8 8 8 9 8 8 w 8 8 e 8 8 e t 8 q     k.x.x.x.x.x.x.x.x.z.z.    d h d l l B   x.z.z.z.z.z.z.z.z.",
"z.z.z.z.z.z.z.k..   B g g d f d d   z.z.z.z.z.z.z.z.z.z.k.    8 e e 9 9 r 8 r 8 8 8 8 8 8 8 8 8 8 8 8 8 8 q 8 8 e w 8 9 0 O   . x.x.x.x.x.x.x.x.z.z.  a d d j j d B   . z.z.z.z.z.z.z.z.",
"z.z.z.z.z.z.z.z.    B B d f d d d   X k.z.z.z.z.z.z.z.z..     t e 8 8 8 8 8 8 8 8 8 7 8 7 6 8 8 8 8 8 7 8 8 8 8 8 8 9 9 8       x.x.x.x.x.x.x.x.z..   d d d j d g k     z.z.z.z.z.z.z.z.",
"z.z.z.z.z.z.z.z.  B d g j d d d d     z.z.z.z.z.z.z.z.z.    e w 9 8 8 8 8 8 8 8 8 8 7 7 8 7 7 8 8 7 7 7 8 8 8 8 8 8 8 e r 8     x.x.x.x.x.x.x.x.z.    d d d d j g l B   k.z.z.z.z.z.z.z.",
"z.z.z.z.z.z.z..   l B d d d d d y d   k.z.z.z.z.z.z.z.z.  X 9 8 8 8 8 8 8 7 6 6 7 6 5 3 6 7 7 6 6 6 8 6 7 7 7 8 8 8 8 8 8 w .   . x.x.x.x.x.x.x.k.  d u p d d d f d g   . z.z.z.z.z.z.z.",
"z.z.z.z.z.z.z.    l f j d d d p p p   . z.z.z.z.z.z.z.X     8 8 8 8 7 8 7 7 6 5 7 2 5 3 2 3 3 6 2 2 5 5 4 4 7 8 8 7 8 8 8 8       k.x.x.x.x.x.x..   p p d p u d d f k     z.z.z.z.z.z.z.",
"z.z.z.z.z.z.z.  B k d d d d d u a y     z.z.z.z.z.z.z.    8 9 8 8 8 8 7 8 7 3 3 2 3 3 3 2 3 1 1 3 3 3 3 6 2 2 6 7 8 7 8 8 8 8     z.x.x.x.x.x.x.    y p y d d d d g d B   z.z.z.z.z.z.z.",
"z.z.z.z.z.z..   f g d d d d u d p p y   x.x.x.x.z.z.k.  . 8 8 8 8 7 7 7 6 6 2 3 1 3 1 1 1 1 1 1 1 1 3 1 3 3 1 2 5 6 5 7 8 7 8 .   . k.z.z.z.z.x.  t y y p d d d d l d j     x.x.z.z.z.z.",
"z.z.z.z.z.z.    d l d d d d u p y t y     x.x.x.z.z.O     8 7 7 7 6 6 7 3 3 1 3 3 1 1 1 1 1 1 1 1 1 1 1 1 1 3 1 3 5 7 7 7 8 8       z.z.z.z.z..   y t y p s p d d d d j     x.x.z.z.z.z.",
"z.z.z.z.z.z.  l j j g d d u u s y t t     z.x.x.z.k.    8 8 8 7 3 1 5 5 3 1 1 1 1 1 1 1 1 : 1 1 1 1 1 1 1 1 1 1 3 1 6 6 7 8 8 8     z.z.z.z.z.    t t y t u p d d d d j B   k.x.z.z.z.z.",
"z.z.z.z.k..   B d d d d d u p y t y y t   z.x.x.z.z.  . 7 8 7 7 3 3 3 1 1 1 1 , 1 , , 1 - 1 1 = , , , 1 1 1 1 1 1 3 3 5 7 7 7 7     X k.z.z.z.  t t t t y p u d d d d d l   . z.z.z.z.z.",
"z.z.z.z.z.    d B d d d u u y y t y t t   . k.x.x.+     8 4 4 2 3 1 1 1 1 1 1 1 1 1 , 1 < : : 1 - 1 1 1 1 = 1 1 1 1 3 3 3 3 6 7       z.z.z.    r t t t y y p u d d d d g     z.z.z.z.z.",
"z.z.z.z.z.  f B d d d d p d p p t t t r     x.x.x.    8 8 6 2 2 3 1 1 1 1 > 1 < = , > = = 1 ; > = = = : , 1 > 1 1 1 1 1 1 3 2 6 8     z.z.z.    r t t t y t p u i d d d d g   z.z.z.z.z.",
"z.z.z.z.z.  B d d d d u d p y t t t t r t   x.x.x.    7 2 2 3 3 1 1 1 1 ; 1 > > = 1 = < = , = = : : = 1 - 1 < 1 1 1 1 1 1 1 5 2 7     . k.z.  0 r t t t t t y u y d d d d B .   z.z.z.z.",
"z.z.z.z.    d j g d d d y y t y t t r t 0 .   x.x.    7 2 3 3 1 1 1 1 1 < = 1 , = = - = = > = = = = ; = = : = 1 > 1 , 1 1 3 3 3 3       z.  . 0 t r t t t y y y i d d d d d     z.z.z.z.",
"z.z.z.z.  B l l d d d d p y p t t t r r e     z.    8 2 2 1 3 1 1 1 > 1 = , > = > = = = = = = = = = = = = : ; ; : 1 , 1 1 3 1 3 4 7     z.    9 t 8 t t t y y u i d d d g d B   k.z.z.z.",
"z.z.z.    B d d d d u u p u t t t t t r r 8   z.    7 7 3 3 1 1 1 1 , > 1 = = > = = = = = = @ = = = = = = = = ; , = 1 1 1 1 1 1 3 3     .   8 8 8 t r r t t t u i d d i d d g .   z.z.z.",
"z.z.z.    j g d d d d u u y y t t r r r q 9         7 4 6 1 1 1 > , , - = < = = = = = * @ = = * $ = % = = = = = = 1 , 1 1 , 1 3 3 6         8 t r t t t t t t u y i d d d f d     z.z.z.",
"z.z.z.  B d l d d d u d u t t t t t t 0 e 8       7 6 3 1 1 1 1 1 1 , , = = = = = = @ = = * * * $ $ = = = = = = = = , , 1 1 1 1 3 3         8 9 r 8 r t t t t y u y d i d d g g   z.z.z.",
"z.z.  . l l d d d d u a u p t t t q 8 q 8 9 8     6 5 3 3 1 1 1 1 = 1 > = = = = & = * $ $ $ @ @ $ $ * = = = = = , ; ; 1 1 1 1 1 3 3 5     7 8 8 w t q t t t t y y u a d d d j B .   z.z.",
"z.z.    B d j d d s d p u t y t q t t e 8 8 8 .   5 3 5 1 1 1 , , , = = = = = & # # @ # # $ @ @ # # # # $ = = = = : > = > 1 1 1 1 5 5     8 8 0 8 r 0 q t t y t y d u d d d d l     z.z.",
"z.z.  B j j d d d d a p y t y r t r r w e 0 8     5 5 1 1 1 1 , , , - > = = = & @ # # @ @ @ @ @ @ @ # # = & = = = > > , 1 > 1 1 1 3 2     8 8 8 8 8 t e t t t t y y u d d d j j g   z.z.",
"z.  . l B d j d d d a a y t t t r r t 8 8 8 8 8     3 1 1 1 1 1 , , = = = = = @ * # # @ @ @ @ @ @ @ # @ & & = = = = = < - , 1 1 1 3     8 8 8 8 w t 8 t r t y y y y d u d j d g B .   z.",
"z.    B g g d d d d y y y t t t 8 t 9 9 8 8 8 7 .   3 1 1 1 1 = > = = = = = & = @ @ @ @ @ @ @ @ @ @ @ @ @ * % = = = < = 1 1 1 1 3 1   . 7 8 8 8 e e t w t t t y a u d d d d g d h     k.",
"    B B g d g d d d u y y y t t t t 0 e e 8 8 7     3 3 1 1 1 1 = @ > = = = & @ @ @ @ @ @ @ @ @ @ @ @ @ @ * % = = = = 1 , = 1 1 1 3     8 7 8 9 8 8 w t t t t t y i i d d d d j l B     "
};
