/* XPM */
static char *result[] = {
/* columns rows colors chars-per-pixel */
"64 64 44 1 ",
"  c black",
". c #151515",
"X c #181717",
"o c #171817",
"O c #171718",
"+ c #181718",
"@ c #171818",
"# c #1C1C1C",
"$ c #201F1F",
"% c #201F20",
"& c #1F2020",
"* c #232323",
"= c #282727",
"- c #282827",
"; c #272828",
": c #2B2B2B",
"> c #2F302F",
", c #30302F",
"< c #2F2F30",
"1 c #333333",
"2 c #373837",
"3 c #383738",
"4 c #373838",
"5 c #3B3B3B",
"6 c #403F3F",
"7 c #40403F",
"8 c #3F3F40",
"9 c #434443",
"0 c #484847",
"q c #4C4B4C",
"w c #4F504F",
"e c #4F4F50",
"r c #4F5050",
"t c #545454",
"y c #5B5B5B",
"u c #5F605F",
"i c #60605F",
"p c #605F60",
"a c #646464",
"s c #6B6B6B",
"d c #737373",
"f c #7B7B7B",
"g c #980088",
"h c #808081",
/* pixels */
"gggggggggggggggggggggggggggggggggggggggggggggggggggggggggggggggg",
"gggggggggggggggggggggggggggggggggggggggggggggggggggggggggggggggg",
"gggggggggggggggggggggggggggggggggggggggggggggggggggggggggggggggg",
"gggggggggggggggggggggggggggggggggggggggggggggggggggggggggggggggg",
"gggggggggggggggggggggggggggggggggggggggggggggggggggggggggggggggg",
"gggggggggggggggggggggggggggggggggggggggggggggggggggggggggggggggg",
"gggggggggggggggggggggggggggggggggggggggggggggggggggggggggggggggg",
"gggggggggggggggggggggggggggggggggggggggggggggggggggggggggggggggg",
"gggggggggggggggggggggggggggggggggggggggggggggggggggggggggggggggg",
"gggggggggggggggggggggggggggggggggggggggggggggggggggggggggggggggg",
"gggggggggggggggggggggggggggggggggggggggggggggggggggggggggggggggg",
"gggggggggggggggggggggggggggggggggggggggggggggggggggggggggggggggg",
"gggggggggggggggggggggggggggggggggggggggggggggggggggggggggggggggg",
"gggggggggggggggggggggggggggggggggggggggggggggggggggggggggggggggg",
"gggggggggggggggggggggggggggggggggggggggggggggggggggggggggggggggg",
"gggggggggggggggggggggggggggggggggggggggggggggggggggggggggggggggg",
"gggggggggggggggggggggggggggggggggggggggggggggggggggggggggggggggg",
"gggggggggggggggggggggggggggggggggggggggggggggggggggggggggggggggg",
"gggggggggggggggggggggggggggggggggggggggggggggggggggggggggggggggg",
"ggggggggggggggggggggggggggg   gggggggggggggggggggggggggggggggggg",
"ggggggggggggggggggggggggggg   gggggggggggggggggggggggggggggggggg",
"ggggggggggggggggggggggggggg    ggggggggggggggggggggggggggggggggg",
"ggggggggggggggggggggggggggg     gggggggggggggggggggggggggggggggg",
"ggggggggggggggggggggggggggg     gggggggggggggggggggggggggggggggg",
"ggggggggggggggggggggggggggg     gggggggggggggggggggggggggggggggg",
"ggggggggggggggggggggggggggg      ggggggggggggggggggggggggggggggg",
"ggggggggggggggggggggggggggg      ggggggggggggggggggggggggggggggg",
"ggggggggggggggggggggggggggg      ggggggggggggggggggggggggggggggg",
"gggggggggggggggggggggggggg        gggggggggggggggggggggggggggggg",
"gggggggggggggggggggggggggg        gggggggggggggggggggggggggggggg",
"ggggggggggggggggggggggggg    hh   gggggggggggggggggggggggggggggg",
"ggggggggggggggggggggggggg    ff    ggggggggggggggggggggggggggggg",
"ggggggggggggggggggggggggg   fff    ggggggggggggggggggggggggggggg",
"gggggggggggggggggggggggg    dfdf   ggggggggggggggggggggggggggggg",
"gggggggggggggggggggggggg    dddd    gggggggggggggggggggggggggggg",
"ggggggggggggggggggggggg    ddssd    gggggggggggggggggggggggggggg",
"ggggggggggggggggggggggg    ssssss    ggggggggggggggggggggggggggg",
"gggggggggggggggggggggg     ssssss    ggggggggggggggggggggggggggg",
"gggggggggggggggggggggg    aaasaasa    gggggggggggggggggggggggggg",
"ggggggggggggggggggggg    aaaaaaaaa    gggggggggggggggggggggggggg",
"ggggggggggg   ggggggg    uiayaaypay    ggggggggggggggggggggggggg",
"ggggggggggg   gggggg    yyyyyyyyyyy    ggggggggggg   ggggggggggg",
"gggggggggg    gggggg    yyyyyyyyyyyy    ggggggggg    ggggggggggg",
"gggggggggg    ggggg    tyttttttyttyt     gggggggg    ggggggggggg",
"ggggggggg     gggg     tttttttttttttt    ggggggg     ggggggggggg",
"ggggggggg      ggg    qweeqqrqqwqqqeqq    gggggg      gggggggggg",
"ggggggggg      gg    qqqqqqqqqqqqqqqqq    gggggg      gggggggggg",
"gggggggg       g     qqq00q00q00qq00qq0    gggg       gggggggggg",
"gggggggg            0000909990990990999    gggg       gggggggggg",
"gggggggg   9       099999699999989999999    ggg   9    ggggggggg",
"ggggggg    97     5959578858888588665559     g    5    ggggggggg",
"ggggggg    55    555555555555555555555555    g    55   ggggggggg",
"ggggggg   2555   5555545445354554545515145       251    gggggggg",
"gggggg    1111    111111111111111111111111       111    gggggggg",
"gggggg    1111    1111111111111111111111111      ,1,1    ggggggg",
"ggggg    1>1::1    <<>>,:1::<::,::<::::::::     :1:::     gggggg",
"ggggg    ::::::    ::::::::::::::::::::::;:;    :::;=:    gggggg",
"gggg    ::;;:;:     -:;;=:--=;;;;;;;=;======    =======    ggggg",
"gggg    =*==*==*    ==*=*****=**=*==*=****=    ********     gggg",
"ggg    ****&*%***    **&*&*&&****%%&&&&%*$     *&&%*&##*     ggg",
"ggg    %#**###&*#     *###&#%#&#%#%##%###     #####&@##$#     gg",
"gg    #########@##    ####@#@@#####@##@#     #@O@##@XX@@@      g",
"g     @o@#XXo@@@XO     @OX@@XXXX@+OX@@@     OX.X..@o....XX.     ",
"     XXXXX.XX.XX.XX     X.XX.....X..X      ........X........    "
};
