/* XPM */
static char *ecb6512421b04407dcfe3a452242dd387gsvv4Zuev86MmMV[] = {
/* columns rows colors chars-per-pixel */
"92 90 4 1 ",
"  c #980088",
". c black",
"X c #BB1313",
"o c #FE1313",
/* pixels */
"                     ....................          ....................                     ",
"                     ....................          ....................                     ",
"                     ....................          ....................                     ",
"                     ....................          ....................                     ",
"                     ....................          ....................                     ",
"                     ....................          ....................                     ",
"                     ....................          ....................                     ",
"                     ....................          ....................                     ",
"                     ....................          ....................                     ",
"                     ....................          ....................                     ",
"           ..........oooooooooooooooooooo..........oooooooooooooooooooo...........          ",
"           ..........oooooooooooooooooooo..........oooooooooooooooooooo...........          ",
"           ..........oooooooooooooooooooo..........oooooooooooooooooooo...........          ",
"           ..........oooooooooooooooooooo..........oooooooooooooooooooo...........          ",
"           ..........oooooooooooooooooooo..........oooooooooooooooooooo...........          ",
"           ..........oooooooooooooooooooo..........oooooooooooooooooooo...........          ",
"           ..........oooooooooooooooooooo..........oooooooooooooooooooo...........          ",
"           ..........oooooooooooooooooooo..........oooooooooooooooooooo...........          ",
"           ..........oooooooooooooooooooo..........oooooooooooooooooooo...........          ",
"           ..........oooooooooooooooooooo..........oooooooooooooooooooo...........          ",
" ..........oooooooooooooooooooooooooooooooooooooooooooooooooooooooooooooooooooooo.......... ",
" ..........oooooooooooooooooooooooooooooooooooooooooooooooooooooooooooooooooooooo.......... ",
" ..........oooooooooooooooooooooooooooooooooooooooooooooooooooooooooooooooooooooo.......... ",
" ..........oooooooooooooooooooooooooooooooooooooooooooooooooooooooooooooooooooooo.......... ",
" ..........oooooooooooooooooooooooooooooooooooooooooooooooooooooooooooooooooooooo.......... ",
" ..........oooooooooooooooooooooooooooooooooooooooooooooooooooooooooooooooooooooo.......... ",
" ..........oooooooooooooooooooooooooooooooooooooooooooooooooooooooooooooooooooooo.......... ",
" ..........oooooooooooooooooooooooooooooooooooooooooooooooooooooooooooooooooooooo.......... ",
" ..........oooooooooooooooooooooooooooooooooooooooooooooooooooooooooooooooooooooo.......... ",
" ..........oooooooooooooooooooooooooooooooooooooooooooooooooooooooooooooooooooooo.......... ",
" ..........oooooooooooooooooooooooooooooooooooooooooooooooooooooooooooooooooooooo.......... ",
" ..........oooooooooooooooooooooooooooooooooooooooooooooooooooooooooooooooooooooo.......... ",
" ..........oooooooooooooooooooooooooooooooooooooooooooooooooooooooooooooooooooooo.......... ",
" ..........oooooooooooooooooooooooooooooooooooooooooooooooooooooooooooooooooooooo.......... ",
" ..........oooooooooooooooooooooooooooooooooooooooooooooooooooooooooooooooooooooo.......... ",
" ..........oooooooooooooooooooooooooooooooooooooooooooooooooooooooooooooooooooooo.......... ",
" ..........oooooooooooooooooooooooooooooooooooooooooooooooooooooooooooooooooooooo.......... ",
" ..........oooooooooooooooooooooooooooooooooooooooooooooooooooooooooooooooooooooo.......... ",
" ..........oooooooooooooooooooooooooooooooooooooooooooooooooooooooooooooooooooooo.......... ",
" ..........oooooooooooooooooooooooooooooooooooooooooooooooooooooooooooooooooooooo.......... ",
" ..........XXXXXXXXXXooooooooooooooooooooooooooooooooooooooooooooooooooXXXXXXXXXX.......... ",
" ..........XXXXXXXXXXooooooooooooooooooooooooooooooooooooooooooooooooooXXXXXXXXXX.......... ",
" ..........XXXXXXXXXXooooooooooooooooooooooooooooooooooooooooooooooooooXXXXXXXXXX.......... ",
" ..........XXXXXXXXXXooooooooooooooooooooooooooooooooooooooooooooooooooXXXXXXXXXX.......... ",
" ..........XXXXXXXXXXooooooooooooooooooooooooooooooooooooooooooooooooooXXXXXXXXXX.......... ",
" ..........XXXXXXXXXXooooooooooooooooooooooooooooooooooooooooooooooooooXXXXXXXXXX.......... ",
" ..........XXXXXXXXXXooooooooooooooooooooooooooooooooooooooooooooooooooXXXXXXXXXX.......... ",
" ..........XXXXXXXXXXooooooooooooooooooooooooooooooooooooooooooooooooooXXXXXXXXXX.......... ",
" ..........XXXXXXXXXXooooooooooooooooooooooooooooooooooooooooooooooooooXXXXXXXXXX.......... ",
" ..........XXXXXXXXXXooooooooooooooooooooooooooooooooooooooooooooooooooXXXXXXXXXX.......... ",
"           ..........XXXXXXXXXXooooooooooooooooooooooooooooooXXXXXXXXXX..........           ",
"           ..........XXXXXXXXXXooooooooooooooooooooooooooooooXXXXXXXXXX..........           ",
"           ..........XXXXXXXXXXooooooooooooooooooooooooooooooXXXXXXXXXX..........           ",
"           ..........XXXXXXXXXXooooooooooooooooooooooooooooooXXXXXXXXXX..........           ",
"           ..........XXXXXXXXXXooooooooooooooooooooooooooooooXXXXXXXXXX..........           ",
"           ..........XXXXXXXXXXooooooooooooooooooooooooooooooXXXXXXXXXX..........           ",
"           ..........XXXXXXXXXXooooooooooooooooooooooooooooooXXXXXXXXXX..........           ",
"           ..........XXXXXXXXXXooooooooooooooooooooooooooooooXXXXXXXXXX..........           ",
"           ..........XXXXXXXXXXooooooooooooooooooooooooooooooXXXXXXXXXX..........           ",
"           ..........XXXXXXXXXXooooooooooooooooooooooooooooooXXXXXXXXXX..........           ",
"                     ..........XXXXXXXXXXooooooooooXXXXXXXXXX..........                     ",
"                     ..........XXXXXXXXXXooooooooooXXXXXXXXXX..........                     ",
"                     ..........XXXXXXXXXXooooooooooXXXXXXXXXX..........                     ",
"                     ..........XXXXXXXXXXooooooooooXXXXXXXXXX..........                     ",
"                     ..........XXXXXXXXXXooooooooooXXXXXXXXXX..........                     ",
"                     ..........XXXXXXXXXXooooooooooXXXXXXXXXX..........                     ",
"                     ..........XXXXXXXXXXooooooooooXXXXXXXXXX..........                     ",
"                     ..........XXXXXXXXXXooooooooooXXXXXXXXXX..........                     ",
"                     ..........XXXXXXXXXXooooooooooXXXXXXXXXX..........                     ",
"                     ..........XXXXXXXXXXooooooooooXXXXXXXXXX..........                     ",
"                               ..........XXXXXXXXXX..........                               ",
"                               ..........XXXXXXXXXX..........                               ",
"                               ..........XXXXXXXXXX..........                               ",
"                               ..........XXXXXXXXXX..........                               ",
"                               ..........XXXXXXXXXX..........                               ",
"                               ..........XXXXXXXXXX..........                               ",
"                               ..........XXXXXXXXXX..........                               ",
"                               ..........XXXXXXXXXX..........                               ",
"                               ..........XXXXXXXXXX..........                               ",
"                               ..........XXXXXXXXXX..........                               ",
"                                         ..........                                         ",
"                                         ..........                                         ",
"                                         ..........                                         ",
"                                         ..........                                         ",
"                                         ..........                                         ",
"                                         ..........                                         ",
"                                         ..........                                         ",
"                                         ..........                                         ",
"                                         ..........                                         ",
"                                         ..........                                         ",
"                                         ..........                                         "
};
